<?xml version="1.0" encoding="utf-8"?>
<!-- Generator: Adobe Illustrator 25.2.3, SVG Export Plug-In . SVG Version: 6.00 Build 0)  -->
<svg version="1.1" id="Layer_1" xmlns="http://www.w3.org/2000/svg" xmlns:xlink="http://www.w3.org/1999/xlink" x="0px" y="0px"
	 viewBox="0 0 3456 2592" style="enable-background:new 0 0 3456 2592;" xml:space="preserve">
<style type="text/css">
	.st0{fill:url(#SVGID_1_);}
	.st1{fill:#FFFFFF;}
</style>
<g>
	<linearGradient id="SVGID_1_" gradientUnits="userSpaceOnUse" x1="0" y1="1296" x2="3456" y2="1296">
		<stop  offset="0" style="stop-color:#009450"/>
		<stop  offset="1" style="stop-color:#009479"/>
	</linearGradient>
	<rect class="st0" width="3456" height="2592"/>
</g>
<path class="st1" d="M1226.9,1045.45h250.55V794.9H1226.9V1045.45z M1602.73,1797.1h250.55v-250.55h-250.55V1797.1z M1226.9,1797.1
	h250.55v-250.55H1226.9V1797.1z M1226.9,1421.27h250.55v-250.55H1226.9V1421.27z M1602.73,1421.27h250.55v-250.55h-250.55V1421.27z
	 M1978.55,794.9v250.55h250.55V794.9H1978.55z M1602.73,1045.45h250.55V794.9h-250.55V1045.45z M1978.55,1421.27h250.55v-250.55
	h-250.55V1421.27z M1978.55,1797.1h250.55v-250.55h-250.55V1797.1z"/>
</svg>
